{
	"asset":{
		"generator":"Khronos glTF Blender I/O v5.0.21",
		"version":"2.0"
	},
	"scene":0,
	"scenes":[
		{
			"name":"Scene",
			"nodes":[
				0,
				1,
				2,
				3,
				4,
				5,
				6,
				7
			]
		}
	],
	"nodes":[
		{
			"extras":{
				"rigify_owner_rig":{}
			},
			"mesh":0,
			"name":"Body"
		},
		{
			"extras":{
				"rigify_owner_rig":{}
			},
			"mesh":1,
			"name":"Hair"
		},
		{
			"extras":{
				"rigify_owner_rig":{}
			},
			"name":"Arm (From Back).001",
			"rotation":[
				-0.7071068286895752,
				0,
				0,
				0.7071068286895752
			],
			"scale":[
				-0.11902599781751633,
				-0.10499998927116394,
				-0.11902637034654617
			],
			"translation":[
				0.15512864291667938,
				-0.3480633795261383,
				0.03409821540117264
			]
		},
		{
			"extras":{
				"rigify_owner_rig":{}
			},
			"name":"Arm (From Inside)",
			"rotation":[
				0.5,
				0.5,
				-0.5,
				0.5
			],
			"scale":[
				0.11902599781751633,
				0.10499998927116394,
				0.11902637034654617
			],
			"translation":[
				0.4525471329689026,
				-0.3480633795261383,
				0.18971452116966248
			]
		},
		{
			"extras":{
				"rigify_owner_rig":{}
			},
			"name":"Arm (From Outside)",
			"rotation":[
				-0.5,
				0.5,
				0.5,
				0.5
			],
			"scale":[
				-0.11902599781751633,
				-0.10499998927116394,
				-0.11902637034654617
			],
			"translation":[
				0.2922891676425934,
				-0.3480633795261383,
				-0.05501222610473633
			]
		},
		{
			"extras":{
				"rigify_owner_rig":{}
			},
			"name":"Proportions (Back)",
			"rotation":[
				0,
				-0.7071066498756409,
				0.70710688829422,
				3.090861255827804e-08
			],
			"scale":[
				0.30000001192092896,
				1,
				0.30000001192092896
			],
			"translation":[
				0.48359957337379456,
				-0.5,
				1
			]
		},
		{
			"extras":{
				"rigify_owner_rig":{}
			},
			"name":"Proportions (Front)",
			"rotation":[
				0.7071068286895752,
				0,
				0,
				0.7071068286895752
			],
			"scale":[
				0.30000001192092896,
				1,
				0.30000001192092896
			],
			"translation":[
				0.30511021614074707,
				-0.4908694326877594,
				0.07937729358673096
			]
		},
		{
			"extras":{
				"rigify_owner_rig":{}
			},
			"name":"Proportions (Side)",
			"rotation":[
				0.5,
				0.5,
				-0.5,
				0.5
			],
			"scale":[
				0.30000001192092896,
				1,
				0.30000001192092896
			],
			"translation":[
				0.07550430297851562,
				-0.4908694326877594,
				0.07937729358673096
			]
		}
	],
	"meshes":[
		{
			"name":"Cube.001",
			"primitives":[
				{
					"attributes":{
						"POSITION":0,
						"NORMAL":1
					},
					"indices":2
				}
			]
		},
		{
			"name":"Cube.005",
			"primitives":[
				{
					"attributes":{
						"POSITION":3,
						"NORMAL":4
					},
					"indices":5
				}
			]
		}
	],
	"accessors":[
		{
			"bufferView":0,
			"componentType":5126,
			"count":7022,
			"max":[
				0.777435839176178,
				1.7597272396087646,
				0.17216746509075165
			],
			"min":[
				-0.777435839176178,
				0.007424831390380859,
				-0.14693082869052887
			],
			"type":"VEC3"
		},
		{
			"bufferView":1,
			"componentType":5126,
			"count":7022,
			"type":"VEC3"
		},
		{
			"bufferView":2,
			"componentType":5123,
			"count":7794,
			"type":"SCALAR"
		},
		{
			"bufferView":3,
			"componentType":5126,
			"count":376,
			"max":[
				0.10729148983955383,
				1.7774943113327026,
				0.1335405558347702
			],
			"min":[
				-0.11006961762905121,
				1.5359529256820679,
				-0.10416562110185623
			],
			"type":"VEC3"
		},
		{
			"bufferView":4,
			"componentType":5126,
			"count":376,
			"type":"VEC3"
		},
		{
			"bufferView":5,
			"componentType":5123,
			"count":612,
			"type":"SCALAR"
		}
	],
	"bufferViews":[
		{
			"buffer":0,
			"byteLength":84264,
			"byteOffset":0,
			"target":34962
		},
		{
			"buffer":0,
			"byteLength":84264,
			"byteOffset":84264,
			"target":34962
		},
		{
			"buffer":0,
			"byteLength":15588,
			"byteOffset":168528,
			"target":34963
		},
		{
			"buffer":0,
			"byteLength":4512,
			"byteOffset":184116,
			"target":34962
		},
		{
			"buffer":0,
			"byteLength":4512,
			"byteOffset":188628,
			"target":34962
		},
		{
			"buffer":0,
			"byteLength":1224,
			"byteOffset":193140,
			"target":34963
		}
	],
	"buffers":[
		{
			"byteLength":194364,
			"uri":"Fate-d7175a0d7c1dc444e5ed1b449763498b.bin"
		}
	]
}
