{
	"asset":{
		"generator":"Khronos glTF Blender I/O v4.5.48",
		"version":"2.0"
	},
	"scene":0,
	"scenes":[
		{
			"name":"Scene",
			"nodes":[
				0,
				1,
				2,
				3,
				4,
				5,
				6
			]
		}
	],
	"nodes":[
		{
			"name":"Proportions (Front)",
			"rotation":[
				0,
				-0.7071066498756409,
				0.70710688829422,
				3.090861255827804e-08
			],
			"scale":[
				0.30000001192092896,
				1,
				0.30000001192092896
			],
			"translation":[
				0.48359957337379456,
				-0.5,
				1
			]
		},
		{
			"name":"Proportions (Side)",
			"rotation":[
				0.5,
				0.5,
				-0.5,
				0.5
			],
			"scale":[
				0.30000001192092896,
				1,
				0.30000001192092896
			],
			"translation":[
				0.07550430297851562,
				-0.4908694326877594,
				0.07937729358673096
			]
		},
		{
			"name":"Proportions (Back)",
			"rotation":[
				0.7071068286895752,
				0,
				0,
				0.7071068286895752
			],
			"scale":[
				0.30000001192092896,
				1,
				0.30000001192092896
			],
			"translation":[
				0.30511021614074707,
				-0.4908694326877594,
				0.07937729358673096
			]
		},
		{
			"mesh":0,
			"name":"Torso",
			"translation":[
				-0.0027121827006340027,
				-0.3562591075897217,
				-0.01592230796813965
			]
		},
		{
			"name":"Empty",
			"rotation":[
				0.5,
				0.5,
				-0.5,
				0.4999999701976776
			],
			"scale":[
				0.10499999672174454,
				0.10499999672174454,
				0.10499999672174454
			],
			"translation":[
				0.045018792152404785,
				-0.32900527119636536,
				0.38412052392959595
			]
		},
		{
			"mesh":1,
			"name":"Hair",
			"translation":[
				0,
				0.009769905358552933,
				-0.00973885040730238
			]
		},
		{
			"mesh":2,
			"name":"Skull"
		}
	],
	"meshes":[
		{
			"name":"Cube.006",
			"primitives":[
				{
					"attributes":{
						"POSITION":0,
						"NORMAL":1,
						"TEXCOORD_0":2
					},
					"indices":3
				}
			]
		},
		{
			"name":"Cube.005",
			"primitives":[
				{
					"attributes":{
						"POSITION":4,
						"NORMAL":5,
						"TEXCOORD_0":6
					},
					"indices":7
				}
			]
		},
		{
			"name":"Cube.004",
			"primitives":[
				{
					"attributes":{
						"POSITION":8,
						"NORMAL":9,
						"TEXCOORD_0":10,
						"TANGENT":11
					},
					"indices":12
				}
			]
		}
	],
	"accessors":[
		{
			"bufferView":0,
			"componentType":5126,
			"count":1354,
			"max":[
				0.13442036509513855,
				0.24068380892276764,
				0.10982814431190491
			],
			"min":[
				-0.13442036509513855,
				-0.22257168591022491,
				-0.10495059192180634
			],
			"type":"VEC3"
		},
		{
			"bufferView":1,
			"componentType":5126,
			"count":1354,
			"type":"VEC3"
		},
		{
			"bufferView":2,
			"componentType":5126,
			"count":1354,
			"type":"VEC2"
		},
		{
			"bufferView":3,
			"componentType":5123,
			"count":1644,
			"type":"SCALAR"
		},
		{
			"bufferView":4,
			"componentType":5126,
			"count":376,
			"max":[
				0.07399412989616394,
				0.0836876630783081,
				0.08765668421983719
			],
			"min":[
				-0.07591007649898529,
				-0.08289265632629395,
				-0.07627860456705093
			],
			"type":"VEC3"
		},
		{
			"bufferView":5,
			"componentType":5126,
			"count":376,
			"type":"VEC3"
		},
		{
			"bufferView":6,
			"componentType":5126,
			"count":376,
			"type":"VEC2"
		},
		{
			"bufferView":7,
			"componentType":5123,
			"count":612,
			"type":"SCALAR"
		},
		{
			"bufferView":8,
			"componentType":5126,
			"count":384,
			"max":[
				0.07062158733606339,
				0.07996025681495667,
				0.07702890783548355
			],
			"min":[
				-0.07062158733606339,
				-0.08660253137350082,
				-0.07988844066858292
			],
			"type":"VEC3"
		},
		{
			"bufferView":9,
			"componentType":5126,
			"count":384,
			"type":"VEC3"
		},
		{
			"bufferView":10,
			"componentType":5126,
			"count":384,
			"type":"VEC2"
		},
		{
			"bufferView":11,
			"componentType":5126,
			"count":384,
			"type":"VEC4"
		},
		{
			"bufferView":12,
			"componentType":5123,
			"count":576,
			"type":"SCALAR"
		}
	],
	"bufferViews":[
		{
			"buffer":0,
			"byteLength":16248,
			"byteOffset":0,
			"target":34962
		},
		{
			"buffer":0,
			"byteLength":16248,
			"byteOffset":16248,
			"target":34962
		},
		{
			"buffer":0,
			"byteLength":10832,
			"byteOffset":32496,
			"target":34962
		},
		{
			"buffer":0,
			"byteLength":3288,
			"byteOffset":43328,
			"target":34963
		},
		{
			"buffer":0,
			"byteLength":4512,
			"byteOffset":46616,
			"target":34962
		},
		{
			"buffer":0,
			"byteLength":4512,
			"byteOffset":51128,
			"target":34962
		},
		{
			"buffer":0,
			"byteLength":3008,
			"byteOffset":55640,
			"target":34962
		},
		{
			"buffer":0,
			"byteLength":1224,
			"byteOffset":58648,
			"target":34963
		},
		{
			"buffer":0,
			"byteLength":4608,
			"byteOffset":59872,
			"target":34962
		},
		{
			"buffer":0,
			"byteLength":4608,
			"byteOffset":64480,
			"target":34962
		},
		{
			"buffer":0,
			"byteLength":3072,
			"byteOffset":69088,
			"target":34962
		},
		{
			"buffer":0,
			"byteLength":6144,
			"byteOffset":72160,
			"target":34962
		},
		{
			"buffer":0,
			"byteLength":1152,
			"byteOffset":78304,
			"target":34963
		}
	],
	"buffers":[
		{
			"byteLength":79456,
			"uri":"Fate-320be305ebb1d6cc18e7a36a478caf69.bin"
		}
	]
}
