{
	"asset":{
		"generator":"Khronos glTF Blender I/O v5.0.21",
		"version":"2.0"
	},
	"extensionsUsed":[
		"KHR_lights_punctual"
	],
	"extensionsRequired":[
		"KHR_lights_punctual"
	],
	"extensions":{
		"KHR_lights_punctual":{
			"lights":[
				{
					"color":[
						1,
						1,
						1
					],
					"intensity":79.57747154594767,
					"type":"point",
					"name":"Light"
				}
			]
		}
	},
	"scene":0,
	"scenes":[
		{
			"name":"Scene",
			"nodes":[
				0,
				1,
				2
			]
		}
	],
	"nodes":[
		{
			"mesh":0,
			"name":"Cube",
			"scale":[
				0.007851799950003624,
				0.007848672568798065,
				0.007544877007603645
			]
		},
		{
			"extensions":{
				"KHR_lights_punctual":{
					"light":0
				}
			},
			"name":"Light",
			"rotation":[
				-0.28416627645492554,
				0.7269423007965088,
				0.34203392267227173,
				0.5232754945755005
			],
			"translation":[
				4.076245307922363,
				5.903861999511719,
				-1.0054539442062378
			]
		},
		{
			"camera":0,
			"name":"Camera",
			"rotation":[
				0.2561284601688385,
				0.2659989595413208,
				-0.9264093041419983,
				0.073543019592762
			],
			"translation":[
				-2.3321361541748047,
				-2.2869670391082764,
				3.6767683029174805
			]
		}
	],
	"cameras":[
		{
			"name":"Camera",
			"perspective":{
				"aspectRatio":1.7777777777777777,
				"yfov":0.39959652046304894,
				"zfar":100,
				"znear":0.10000000149011612
			},
			"type":"perspective"
		}
	],
	"materials":[
		{
			"doubleSided":true,
			"name":"Material",
			"pbrMetallicRoughness":{
				"baseColorFactor":[
					0.18988116085529327,
					0.24075645208358765,
					0.24075645208358765,
					1
				],
				"metallicFactor":2,
				"roughnessFactor":0.3199999928474426
			}
		},
		{
			"doubleSided":true,
			"name":"Material.001",
			"pbrMetallicRoughness":{
				"baseColorFactor":[
					0.058262817561626434,
					0.08849373459815979,
					0.13288110494613647,
					1
				],
				"metallicFactor":5,
				"roughnessFactor":0.3199999928474426
			}
		},
		{
			"doubleSided":true,
			"name":"Material.003",
			"pbrMetallicRoughness":{
				"baseColorFactor":[
					0.17554783821105957,
					0.04834068566560745,
					0.006879294291138649,
					1
				],
				"metallicFactor":0,
				"roughnessFactor":0.949999988079071
			}
		}
	],
	"meshes":[
		{
			"name":"Cube",
			"primitives":[
				{
					"attributes":{
						"POSITION":0,
						"NORMAL":1,
						"TEXCOORD_0":2
					},
					"indices":3,
					"material":0
				},
				{
					"attributes":{
						"POSITION":4,
						"NORMAL":5,
						"TEXCOORD_0":6
					},
					"indices":7,
					"material":1
				},
				{
					"attributes":{
						"POSITION":8,
						"NORMAL":9,
						"TEXCOORD_0":10
					},
					"indices":11,
					"material":2
				}
			]
		}
	],
	"accessors":[
		{
			"bufferView":0,
			"componentType":5126,
			"count":208,
			"max":[
				31.839832305908203,
				169.8412322998047,
				8.332574844360352
			],
			"min":[
				-31.839832305908203,
				-66.12725830078125,
				-7.572257041931152
			],
			"type":"VEC3"
		},
		{
			"bufferView":1,
			"componentType":5126,
			"count":208,
			"type":"VEC3"
		},
		{
			"bufferView":2,
			"componentType":5126,
			"count":208,
			"type":"VEC2"
		},
		{
			"bufferView":3,
			"componentType":5123,
			"count":336,
			"type":"SCALAR"
		},
		{
			"bufferView":4,
			"componentType":5126,
			"count":44,
			"max":[
				4.363915920257568,
				188.69290161132812,
				1
			],
			"min":[
				-4.363915920257568,
				-6.443397521972656,
				-1
			],
			"type":"VEC3"
		},
		{
			"bufferView":5,
			"componentType":5126,
			"count":44,
			"type":"VEC3"
		},
		{
			"bufferView":6,
			"componentType":5126,
			"count":44,
			"type":"VEC2"
		},
		{
			"bufferView":7,
			"componentType":5123,
			"count":60,
			"type":"SCALAR"
		},
		{
			"bufferView":8,
			"componentType":5126,
			"count":24,
			"max":[
				2.998537302017212,
				-6.148524761199951,
				1.080777645111084
			],
			"min":[
				-2.998537302017212,
				-45.624549865722656,
				-1.2169278860092163
			],
			"type":"VEC3"
		},
		{
			"bufferView":9,
			"componentType":5126,
			"count":24,
			"type":"VEC3"
		},
		{
			"bufferView":10,
			"componentType":5126,
			"count":24,
			"type":"VEC2"
		},
		{
			"bufferView":11,
			"componentType":5123,
			"count":36,
			"type":"SCALAR"
		}
	],
	"bufferViews":[
		{
			"buffer":0,
			"byteLength":2496,
			"byteOffset":0,
			"target":34962
		},
		{
			"buffer":0,
			"byteLength":2496,
			"byteOffset":2496,
			"target":34962
		},
		{
			"buffer":0,
			"byteLength":1664,
			"byteOffset":4992,
			"target":34962
		},
		{
			"buffer":0,
			"byteLength":672,
			"byteOffset":6656,
			"target":34963
		},
		{
			"buffer":0,
			"byteLength":528,
			"byteOffset":7328,
			"target":34962
		},
		{
			"buffer":0,
			"byteLength":528,
			"byteOffset":7856,
			"target":34962
		},
		{
			"buffer":0,
			"byteLength":352,
			"byteOffset":8384,
			"target":34962
		},
		{
			"buffer":0,
			"byteLength":120,
			"byteOffset":8736,
			"target":34963
		},
		{
			"buffer":0,
			"byteLength":288,
			"byteOffset":8856,
			"target":34962
		},
		{
			"buffer":0,
			"byteLength":288,
			"byteOffset":9144,
			"target":34962
		},
		{
			"buffer":0,
			"byteLength":192,
			"byteOffset":9432,
			"target":34962
		},
		{
			"buffer":0,
			"byteLength":72,
			"byteOffset":9624,
			"target":34963
		}
	],
	"buffers":[
		{
			"byteLength":9696,
			"uri":"SwordThatLooksLikeAClaymore2-763ce53569b813691e2881560024624a.bin"
		}
	]
}
